<svg xmlns="http://www.w3.org/2000/svg" width="125" height="115" fill="none"><g filter="url(#a)"><path fill="#DCD1B1" d="m42.467 0 17.696 10.258v20.515L42.467 41.03 24.77 30.773V10.258L42.467 0Z"/><path stroke="#1C2936" stroke-width="7" d="m28.27 12.274 14.197-8.229 14.196 8.23v16.48l-14.196 8.23-14.196-8.23v-16.48Z"/></g><g filter="url(#b)"><path fill="#DCD1B1" d="M22.434 32.18 40.13 42.238V62.35L22.434 72.406 4.738 62.35V42.237L22.434 32.18Z"/><path stroke="#1C2936" stroke-width="7" d="m8.238 44.273 14.196-8.067 14.196 8.067v16.04L22.434 68.38 8.238 60.313v-16.04Z"/></g><g filter="url(#c)"><path fill="#DCD1B1" d="m62.5 32.18 17.696 10.057V62.35L62.5 72.406 44.804 62.35V42.237L62.5 32.18Z"/><path stroke="#1C2936" stroke-width="7" d="M48.304 44.273 62.5 36.206l14.196 8.067v16.04L62.5 68.38l-14.196-8.067v-16.04Z"/></g><g filter="url(#d)"><path fill="#DCD1B1" d="m82.533 0 17.696 10.258v20.515L82.533 41.03 64.837 30.773V10.258L82.533 0Z"/><path stroke="#1C2936" stroke-width="7" d="m68.337 12.274 14.196-8.229 14.196 8.23v16.48l-14.196 8.23-14.196-8.23v-16.48Z"/></g><g filter="url(#e)"><path fill="#DCD1B1" d="m102.967 32.18 17.349 10.057V62.35l-17.349 10.056-17.35-10.056V42.237l17.35-10.056Z"/><path stroke="#1C2936" stroke-width="7" d="m89.118 44.254 13.849-8.028 13.849 8.028v16.079l-13.849 8.028-13.85-8.028v-16.08Z"/></g><g filter="url(#f)"><path fill="#DCD1B1" d="m82.533 65.97 17.696 10.257v20.516L82.533 107 64.837 96.743V76.227L82.533 65.97Z"/><path stroke="#1C2936" stroke-width="7" d="m68.337 78.244 14.196-8.229 14.196 8.23v16.48l-14.196 8.23-14.196-8.23v-16.48Z"/></g><defs><filter id="a" width="43.392" height="49.03" x="20.771" y="0" color-interpolation-filters="sRGB" filterUnits="userSpaceOnUse"><feFlood flood-opacity="0" result="BackgroundImageFix"/><feColorMatrix in="SourceAlpha" result="hardAlpha" values="0 0 0 0 0 0 0 0 0 0 0 0 0 0 0 0 0 0 127 0"/><feOffset dy="4"/><feGaussianBlur stdDeviation="2"/><feComposite in2="hardAlpha" operator="out"/><feColorMatrix values="0 0 0 0 0 0 0 0 0 0 0 0 0 0 0 0 0 0 0.25 0"/><feBlend in2="BackgroundImageFix" result="effect1_dropShadow_6_55"/><feBlend in="SourceGraphic" in2="effect1_dropShadow_6_55" result="shape"/></filter><filter id="b" width="43.392" height="48.226" x=".738" y="32.181" color-interpolation-filters="sRGB" filterUnits="userSpaceOnUse"><feFlood flood-opacity="0" result="BackgroundImageFix"/><feColorMatrix in="SourceAlpha" result="hardAlpha" values="0 0 0 0 0 0 0 0 0 0 0 0 0 0 0 0 0 0 127 0"/><feOffset dy="4"/><feGaussianBlur stdDeviation="2"/><feComposite in2="hardAlpha" operator="out"/><feColorMatrix values="0 0 0 0 0 0 0 0 0 0 0 0 0 0 0 0 0 0 0.25 0"/><feBlend in2="BackgroundImageFix" result="effect1_dropShadow_6_55"/><feBlend in="SourceGraphic" in2="effect1_dropShadow_6_55" result="shape"/></filter><filter id="c" width="43.392" height="48.226" x="40.804" y="32.181" color-interpolation-filters="sRGB" filterUnits="userSpaceOnUse"><feFlood flood-opacity="0" result="BackgroundImageFix"/><feColorMatrix in="SourceAlpha" result="hardAlpha" values="0 0 0 0 0 0 0 0 0 0 0 0 0 0 0 0 0 0 127 0"/><feOffset dy="4"/><feGaussianBlur stdDeviation="2"/><feComposite in2="hardAlpha" operator="out"/><feColorMatrix values="0 0 0 0 0 0 0 0 0 0 0 0 0 0 0 0 0 0 0.25 0"/><feBlend in2="BackgroundImageFix" result="effect1_dropShadow_6_55"/><feBlend in="SourceGraphic" in2="effect1_dropShadow_6_55" result="shape"/></filter><filter id="d" width="43.392" height="49.03" x="60.837" y="0" color-interpolation-filters="sRGB" filterUnits="userSpaceOnUse"><feFlood flood-opacity="0" result="BackgroundImageFix"/><feColorMatrix in="SourceAlpha" result="hardAlpha" values="0 0 0 0 0 0 0 0 0 0 0 0 0 0 0 0 0 0 127 0"/><feOffset dy="4"/><feGaussianBlur stdDeviation="2"/><feComposite in2="hardAlpha" operator="out"/><feColorMatrix values="0 0 0 0 0 0 0 0 0 0 0 0 0 0 0 0 0 0 0.25 0"/><feBlend in2="BackgroundImageFix" result="effect1_dropShadow_6_55"/><feBlend in="SourceGraphic" in2="effect1_dropShadow_6_55" result="shape"/></filter><filter id="e" width="42.698" height="48.226" x="81.618" y="32.181" color-interpolation-filters="sRGB" filterUnits="userSpaceOnUse"><feFlood flood-opacity="0" result="BackgroundImageFix"/><feColorMatrix in="SourceAlpha" result="hardAlpha" values="0 0 0 0 0 0 0 0 0 0 0 0 0 0 0 0 0 0 127 0"/><feOffset dy="4"/><feGaussianBlur stdDeviation="2"/><feComposite in2="hardAlpha" operator="out"/><feColorMatrix values="0 0 0 0 0 0 0 0 0 0 0 0 0 0 0 0 0 0 0.25 0"/><feBlend in2="BackgroundImageFix" result="effect1_dropShadow_6_55"/><feBlend in="SourceGraphic" in2="effect1_dropShadow_6_55" result="shape"/></filter><filter id="f" width="43.392" height="49.03" x="60.837" y="65.97" color-interpolation-filters="sRGB" filterUnits="userSpaceOnUse"><feFlood flood-opacity="0" result="BackgroundImageFix"/><feColorMatrix in="SourceAlpha" result="hardAlpha" values="0 0 0 0 0 0 0 0 0 0 0 0 0 0 0 0 0 0 127 0"/><feOffset dy="4"/><feGaussianBlur stdDeviation="2"/><feComposite in2="hardAlpha" operator="out"/><feColorMatrix values="0 0 0 0 0 0 0 0 0 0 0 0 0 0 0 0 0 0 0.25 0"/><feBlend in2="BackgroundImageFix" result="effect1_dropShadow_6_55"/><feBlend in="SourceGraphic" in2="effect1_dropShadow_6_55" result="shape"/></filter></defs></svg>